<?xml version="1.0" standalone="no"?>
<!DOCTYPE svg PUBLIC "-//W3C//DTD SVG 20010904//EN"
 "http://www.w3.org/TR/2001/REC-SVG-20010904/DTD/svg10.dtd">
<svg version="1.0" xmlns="http://www.w3.org/2000/svg"
 width="244.000000pt" height="244.000000pt" viewBox="0 0 244.000000 244.000000"
 preserveAspectRatio="xMidYMid meet">

<g transform="translate(0.000000,244.000000) scale(0.100000,-0.100000)"
fill="#000000" stroke="none">
<path d="M552 1619 c-56 -10 -136 -46 -190 -87 -28 -22 -102 -111 -102 -125 0
-2 69 -7 153 -10 217 -7 342 -47 532 -171 l85 -56 0 43 c0 179 -130 353 -295
395 -66 17 -127 20 -183 11z m212 -264 c-3 -8 -12 -11 -20 -8 -15 5 -18 16 -8
26 11 10 33 -4 28 -18z"/>
<path d="M1113 1219 l-170 -404 168 -3 c92 -1 246 -1 342 0 l174 3 -162 382
c-88 209 -166 391 -171 403 -9 19 -35 -37 -181 -381z"/>
<path d="M1650 1215 l0 -405 195 0 c176 0 200 2 235 20 161 82 191 265 63 381
-21 19 -53 41 -71 48 -35 15 -39 23 -18 40 21 17 39 96 33 142 -7 52 -46 111
-99 149 l-41 30 -149 0 -148 0 0 -405z"/>
<path d="M290 1370 c0 -5 6 -10 14 -10 8 0 18 5 21 10 3 6 -3 10 -14 10 -12 0
-21 -4 -21 -10z"/>
<path d="M350 1370 c0 -5 5 -10 10 -10 6 0 10 5 10 10 0 6 -4 10 -10 10 -5 0
-10 -4 -10 -10z"/>
<path d="M390 1370 c0 -5 4 -10 9 -10 6 0 13 5 16 10 3 6 -1 10 -9 10 -9 0
-16 -4 -16 -10z"/>
<path d="M435 1371 c-3 -5 -2 -12 3 -15 5 -3 9 1 9 9 0 17 -3 19 -12 6z"/>
<path d="M490 1366 c0 -2 7 -6 15 -10 8 -3 15 -1 15 4 0 6 -7 10 -15 10 -8 0
-15 -2 -15 -4z"/>
<path d="M540 1349 c0 -4 8 -9 18 -11 10 -3 19 0 19 6 0 7 -9 12 -19 12 -10 0
-18 -3 -18 -7z"/>
<path d="M248 1333 c-10 -2 -20 -14 -22 -26 -31 -151 12 -287 124 -390 171
-158 442 -136 591 48 38 48 73 121 65 140 -13 36 -215 149 -326 182 -77 24
-160 39 -120 22 34 -14 33 -13 16 -48 -29 -55 -105 -51 -127 6 -13 36 -5 53
28 54 20 1 15 4 -17 10 -48 8 -183 10 -212 2z m60 -45 c-7 -19 -38 -22 -38 -4
0 10 9 16 21 16 12 0 19 -5 17 -12z m422 -49 c0 -5 -7 -9 -15 -9 -15 0 -20 12
-9 23 8 8 24 -1 24 -14z m-252 -42 c2 -10 -3 -17 -11 -17 -16 0 -30 24 -19 34
10 10 27 1 30 -17z m162 -52 c0 -8 -7 -15 -15 -15 -8 0 -15 7 -15 15 0 8 7 15
15 15 8 0 15 -7 15 -15z m-270 -5 c0 -5 -4 -10 -10 -10 -5 0 -10 5 -10 10 0 6
5 10 10 10 6 0 10 -4 10 -10z m-30 -25 c0 -8 -7 -15 -15 -15 -8 0 -15 7 -15
15 0 8 7 15 15 15 8 0 15 -7 15 -15z m338 -3 c2 -7 -3 -12 -12 -12 -9 0 -16 7
-16 16 0 17 22 14 28 -4z m-98 -7 c0 -8 -4 -15 -9 -15 -13 0 -22 16 -14 24 11
11 23 6 23 -9z m-290 -25 c0 -5 -4 -10 -10 -10 -5 0 -10 5 -10 10 0 6 5 10 10
10 6 0 10 -4 10 -10z m128 -1 c-2 -6 -8 -10 -13 -10 -5 0 -11 4 -13 10 -2 6 4
11 13 11 9 0 15 -5 13 -11z m192 7 c0 -3 -4 -8 -10 -11 -5 -3 -10 -1 -10 4 0
6 5 11 10 11 6 0 10 -2 10 -4z m310 -11 c0 -8 -7 -15 -15 -15 -16 0 -20 12 -8
23 11 12 23 8 23 -8z m60 -5 c0 -5 -4 -10 -10 -10 -5 0 -10 5 -10 10 0 6 5 10
10 10 6 0 10 -4 10 -10z m-580 -35 c0 -8 -4 -15 -10 -15 -5 0 -10 7 -10 15 0
8 5 15 10 15 6 0 10 -7 10 -15z m240 -11 c0 -8 -7 -14 -15 -14 -15 0 -21 21
-9 33 10 9 24 -2 24 -19z m288 2 c-8 -6 -15 -15 -16 -21 -1 -10 -22 -21 -22
-10 0 16 33 54 43 48 6 -4 5 -10 -5 -17z m-463 -25 c7 -12 -12 -24 -25 -16
-11 7 -4 25 10 25 5 0 11 -4 15 -9z m249 -22 c-3 -5 -10 -7 -15 -3 -5 3 -7 10
-3 15 3 5 10 7 15 3 5 -3 7 -10 3 -15z m120 0 c-3 -5 -10 -7 -15 -3 -5 3 -7
10 -3 15 3 5 10 7 15 3 5 -3 7 -10 3 -15z m40 0 c-3 -5 -10 -7 -15 -3 -5 3 -7
10 -3 15 3 5 10 7 15 3 5 -3 7 -10 3 -15z m-89 2 c3 -5 1 -12 -5 -16 -5 -3
-10 1 -10 9 0 18 6 21 15 7z m55 -36 c0 -8 -4 -15 -9 -15 -13 0 -22 16 -14 24
11 11 23 6 23 -9z m-90 -10 c0 -8 -4 -15 -10 -15 -5 0 -10 7 -10 15 0 8 5 15
10 15 6 0 10 -7 10 -15z m90 -35 c0 -5 -4 -10 -9 -10 -6 0 -13 5 -16 10 -3 6
1 10 9 10 9 0 16 -4 16 -10z"/>
<path d="M650 1331 c0 -10 19 -25 25 -20 1 2 -3 10 -11 17 -8 7 -14 8 -14 3z"/>
<path d="M697 1323 c-4 -7 1 -16 11 -22 14 -7 19 -6 19 4 0 8 -4 12 -8 9 -4
-2 -9 1 -11 8 -3 9 -6 9 -11 1z"/>
<path d="M743 1298 c2 -7 12 -12 21 -12 9 1 16 -2 16 -8 0 -5 5 -6 11 -2 16 9
-10 24 -29 16 -10 -3 -13 -1 -8 6 4 7 2 12 -4 12 -7 0 -10 -6 -7 -12z"/>
<path d="M815 1269 c-4 -5 -4 -13 -1 -16 3 -4 6 0 6 8 0 11 2 11 10 -1 6 -9
10 -10 10 -3 0 17 -17 25 -25 12z"/>
<path d="M856 1243 c-6 -14 -5 -15 5 -6 7 7 10 15 7 18 -3 3 -9 -2 -12 -12z"/>
<path d="M880 1229 c0 -5 5 -7 10 -4 6 3 10 8 10 11 0 2 -4 4 -10 4 -5 0 -10
-5 -10 -11z"/>
<path d="M905 1210 c4 -6 11 -8 16 -5 14 9 11 15 -7 15 -8 0 -12 -5 -9 -10z"/>
<path d="M935 1201 c-3 -5 -1 -12 5 -16 5 -3 10 1 10 9 0 18 -6 21 -15 7z"/>
<path d="M960 1175 c0 -8 2 -15 4 -15 2 0 6 7 10 15 3 8 1 15 -4 15 -6 0 -10
-7 -10 -15z"/>
</g>
</svg>
